 http://www.torrentkit.com  

who care what we share? support us by seeding back,
and don\'t forget to visit

---------------------------------------------------------------------------


[pre]
[IMG]http://shareimage.ro/images/eymj19ch98k56dqv87ew.jpg[/IMG]
[color=Green][size=4]Winters.Bone.2010.LIMITED.DVDRip.XviD-DiVERSiTY[/size][/color]

[color=Green]General[/color]
Complete name                    : Winters.Bone.2010.LIMITED.DVDRip.XviD-DiVERSiTY.avi
Format                           : AVI
Format/Info                      : Audio Video Interleave
Format profile                   : OpenDML
File size                        : 702 MiB
Duration                         : 1h 40mn
Overall bit rate                 : 981 Kbps
Writing application              : AVI-Mux GUI 1.17.8.3, Feb 16 201019:42:50
Encoder                          : Skrufern

[color=Green]Video[/color]
ID                               : 0
Format                           : MPEG-4 Visual
Format profile                   : Advanced Simple@L5
Format settings, BVOP            : Yes
Format settings, QPel            : No
Format settings, GMC             : No warppoints
Format settings, Matrix          : Default (H.263)
Codec ID                         : XVID
Codec ID/Hint                    : XviD
Duration                         : 1h 40mn
Bit rate                         : 849 Kbps
Width                            : 608 pixels
Height                           : 336 pixels
Display aspect ratio             : 16:9
Frame rate                       : 23.976 fps
Color space                      : YUV
Chroma subsampling               : 4:2:0
Bit depth                        : 8 bits
Scan type                        : Progressive
Compression mode                 : Lossy
Bits/(Pixel*Frame)               : 0.173
Stream size                      : 608 MiB (87%)
Writing library                  : XviD 1.2.1 (UTC 2008-12-04)

[color=Green]Audio[/color]
ID                               : 1
Format                           : MPEG Audio
Format version                   : Version 1
Format profile                   : Layer 3
Mode                             : Joint stereo
Codec ID                         : 55
Codec ID/Hint                    : MP3
Duration                         : 1h 40mn
Bit rate mode                    : Constant
Bit rate                         : 128 Kbps
Channel(s)                       : 2 channels
Sampling rate                    : 48.0 KHz
Compression mode                 : Lossy
Stream size                      : 91.6 MiB (13%)
Alignment                        : Aligned on interleaves
Interleave, duration             : 832 ms (19.94 video frames)
Interleave, preload duration     : 216 ms
Title                            : VTS_01_1 T80 3_2ch 448Kbps DELAY 0ms
Writing library                  : LAME3.98r
Encoding settings                : -m j -V 4 -q 2 -lowpass 17 -b 128

[color=Green]
iMDB...: [url]http://www.imdb.com/title/tt1399683/[/url]
Source.:[/color] Winters.Bone.LIMITED.DVDR-MPTDVD

[color=Blue]Greets:[/color]

[color=red]*THC*,MUSE,DiGiTaL iNK,ViSiON,LEGi0N,FLAWL3SS,Rx,Hibees,Rapeseed
xXTHORNXx,Noir,IMAGiNE,ELEKTRI4KA,KART3LDVD,CTFX,202122,StevieL,Smelly+
All the people that make p2p what it is...THANKS[/color]

[color=Green]Screens:[/color]










----------------------------------------------------------------------------
 
http://www.torrentkit.com thanks for supporting with server cast,